<svg xmlns="http://www.w3.org/2000/svg" viewBox="0 0 64 64"><rect width="64" height="64" rx="16" fill="#0e1b26"/><g transform="translate(12 12) scale(1.6667)" fill="none" stroke="#8ccbf0" stroke-width="1.9" stroke-linecap="round" stroke-linejoin="round"><path d="M7.5 3.2c-2.6 0-4.2 2.1-4.2 4.8 0 2.3.8 3.8 1.4 5.6.6 1.9.8 3.7 1.2 5.6.3 1.5 1 2.3 1.8 2.3 1.4 0 1.7-1.7 2.1-3.6.4-1.7.8-3.1 2.2-3.1s1.8 1.4 2.2 3.1c.4 1.9.7 3.6 2.1 3.6.8 0 1.5-.8 1.8-2.3.4-1.9.6-3.7 1.2-5.6.6-1.8 1.4-3.3 1.4-5.6 0-2.7-1.6-4.8-4.2-4.8-1.9 0-2.8 1.1-4.5 1.1s-2.6-1.1-4.5-1.1Z"/></g></svg>
